<svg width="56" height="16" viewBox="0 0 56 16" fill="none" xmlns="http://www.w3.org/2000/svg">
<path d="M6.46529 2.88481C7.11182 2.88481 7.75835 3.08801 8.40488 3.47592L9.77183 0.760497C8.86669 0.280218 7.9985 0.0216064 7.16724 0.0216064C6.48377 0.0216064 5.89266 0.150912 5.3939 0.391052C4.89515 0.631191 4.32251 1.11147 3.65751 1.79495L2.97404 2.51536V0.46494H0V16.0001H2.97404V7.92774C2.97404 4.58426 4.15626 2.88481 6.46529 2.88481Z" fill="#383638"/>
<path d="M19.1366 6.31775H16.1626V15.9972H19.1366V6.31775Z" fill="#383638"/>
<path d="M19.1191 0.609585C18.7127 0.203196 18.2324 0 17.6598 0C17.0872 0 16.6254 0.203196 16.219 0.609585C15.8126 1.01598 15.6094 1.47778 15.6094 2.03195C15.6094 2.62306 15.8126 3.10334 16.219 3.50973C16.6254 3.91612 17.1056 4.11932 17.6783 4.11932C18.2509 4.11932 18.7312 3.91612 19.1191 3.50973C19.5255 3.10334 19.7287 2.62306 19.7287 2.05042C19.7102 1.47778 19.5255 1.01598 19.1191 0.609585Z" fill="#383638"/>
<path d="M34.0817 3.06563H31.1446V0.0177002H28.1706V3.06563H26.5635V5.79952H28.1706V15.9962H31.1446V5.79952H34.0817V3.06563Z" fill="#383638"/>
<path d="M55.1583 6.74292C54.5303 2.71596 50.8912 -0.295017 46.6242 0.0374838C42.708 0.351512 39.5493 3.54721 39.3091 7.48181C39.0136 12.1368 42.6896 15.9975 47.2892 15.9975C49.1179 15.9975 50.8174 15.3695 52.1658 14.335V15.9975H55.2692L55.2507 7.98056C55.2322 7.5557 55.2138 7.14931 55.1583 6.74292ZM47.2707 12.8757C44.5737 12.8757 42.394 10.696 42.394 7.99903C42.394 5.30208 44.5737 3.12236 47.2707 3.12236C49.9676 3.12236 52.1474 5.30208 52.1474 7.99903C52.1474 10.696 49.9492 12.8757 47.2707 12.8757Z" fill="#383638"/>
</svg>
