<svg width="12" height="12" viewBox="0 0 12 12" fill="none" xmlns="http://www.w3.org/2000/svg">
<g clip-path="url(#clip0)">
<path d="M0 6.42435V5.57569C0 5.45688 0.0933522 5.36353 0.212164 5.36353H11.7878C11.9066 5.36353 12 5.45688 12 5.57569V6.42435C12 6.54316 11.9066 6.63651 11.7878 6.63651H0.212164C0.0933522 6.63651 0 6.54316 0 6.42435Z" fill="white"/>
<path d="M1.06082 3.39462H0.212164C0.0933522 3.39462 0 3.30127 0 3.18246V1.48515C0 0.661952 0.661952 0 1.48515 0H3.18246C3.30127 0 3.39462 0.0933522 3.39462 0.212164V1.06082C3.39462 1.17963 3.30127 1.27298 3.18246 1.27298H1.48515C1.36634 1.27298 1.27298 1.36634 1.27298 1.48515V3.18246C1.27298 3.30127 1.17963 3.39462 1.06082 3.39462Z" fill="white"/>
<path d="M11.7879 3.39462H10.9393C10.8205 3.39462 10.7271 3.30127 10.7271 3.18246V1.48515C10.7271 1.36634 10.6338 1.27298 10.5149 1.27298H8.81763C8.69882 1.27298 8.60547 1.17963 8.60547 1.06082V0.212164C8.60547 0.0933522 8.69882 0 8.81763 0H10.5149C11.3381 0 12.0001 0.661952 12.0001 1.48515V3.18246C12.0001 3.30127 11.9067 3.39462 11.7879 3.39462Z" fill="white"/>
<path d="M10.5149 12H8.81763C8.69882 12 8.60547 11.9066 8.60547 11.7878V10.9392C8.60547 10.8203 8.69882 10.727 8.81763 10.727H10.5149C10.6338 10.727 10.7271 10.6336 10.7271 10.5148V8.81751C10.7271 8.6987 10.8205 8.60535 10.9393 8.60535H11.7879C11.9067 8.60535 12.0001 8.6987 12.0001 8.81751V10.5148C12.0001 11.338 11.3381 12 10.5149 12Z" fill="white"/>
<path d="M3.18246 12H1.48515C0.661952 12 0 11.338 0 10.5148V8.81751C0 8.6987 0.0933522 8.60535 0.212164 8.60535H1.06082C1.17963 8.60535 1.27298 8.6987 1.27298 8.81751V10.5148C1.27298 10.6336 1.36634 10.727 1.48515 10.727H3.18246C3.30127 10.727 3.39462 10.8203 3.39462 10.9392V11.7878C3.39462 11.9066 3.30127 12 3.18246 12Z" fill="white"/>
</g>
<defs>
<clipPath id="clip0">
<rect width="12" height="12" fill="white"/>
</clipPath>
</defs>
</svg>
