<svg width="17" height="16" viewBox="0 0 17 16" fill="none" xmlns="http://www.w3.org/2000/svg">
<path d="M5.65769 1.13154V5.65769H1.13154V1.13154H5.65769ZM6.22346 0H0.565769C0.248938 0 0 0.248938 0 0.565769V6.22346C0 6.54029 0.248938 6.78923 0.565769 6.78923H6.22346C6.54029 6.78923 6.78923 6.54029 6.78923 6.22346V0.565769C6.78923 0.248938 6.54029 0 6.22346 0Z" fill="white"/>
<path d="M14.8677 1.13154V5.65769H10.3415V1.13154H14.8677ZM15.4334 0H9.77573C9.4589 0 9.20996 0.248938 9.20996 0.565769V6.22346C9.20996 6.54029 9.4589 6.78923 9.77573 6.78923H15.4334C15.7503 6.78923 15.9992 6.54029 15.9992 6.22346V0.565769C15.9992 0.248938 15.7503 0 15.4334 0Z" fill="white"/>
<path d="M5.65769 10.3421V14.8683H1.13154V10.3421H5.65769ZM6.22346 9.21057H0.565769C0.248938 9.21057 0 9.45951 0 9.77634V15.434C0 15.7509 0.248938 15.9998 0.565769 15.9998H6.22346C6.54029 15.9998 6.78923 15.7509 6.78923 15.434V9.77634C6.78923 9.47083 6.54029 9.21057 6.22346 9.21057Z" fill="white"/>
<path d="M3.95414 4.52608H2.82261C2.50577 4.52608 2.25684 4.27714 2.25684 3.96031V2.82877C2.25684 2.51194 2.50577 2.263 2.82261 2.263H3.95414C4.27097 2.263 4.51991 2.51194 4.51991 2.82877V3.96031C4.51991 4.27714 4.27097 4.52608 3.95414 4.52608Z" fill="white"/>
<path d="M13.17 4.52608H12.0384C11.7216 4.52608 11.4727 4.27714 11.4727 3.96031V2.82877C11.4727 2.51194 11.7216 2.263 12.0384 2.263H13.17C13.4868 2.263 13.7357 2.51194 13.7357 2.82877V3.96031C13.7357 4.27714 13.4868 4.52608 13.17 4.52608Z" fill="white"/>
<path d="M10.9073 11.4736H9.77573C9.4589 11.4736 9.20996 11.2247 9.20996 10.9079V9.77634C9.20996 9.45951 9.4589 9.21057 9.77573 9.21057H10.9073C11.2241 9.21057 11.473 9.45951 11.473 9.77634V10.9079C11.473 11.2247 11.2241 11.4736 10.9073 11.4736Z" fill="white"/>
<path d="M3.95414 13.7369H2.82261C2.50577 13.7369 2.25684 13.488 2.25684 13.1711V12.0396C2.25684 11.7228 2.50577 11.4738 2.82261 11.4738H3.95414C4.27097 11.4738 4.51991 11.7228 4.51991 12.0396V13.1711C4.51991 13.488 4.27097 13.7369 3.95414 13.7369Z" fill="white"/>
<path d="M15.4356 11.4736H14.3041C13.9872 11.4736 13.7383 11.2247 13.7383 10.9079V9.77634C13.7383 9.45951 13.9872 9.21057 14.3041 9.21057H15.4356C15.7524 9.21057 16.0014 9.45951 16.0014 9.77634V10.9079C16.0014 11.2247 15.7524 11.4736 15.4356 11.4736Z" fill="white"/>
<path d="M15.4356 16H14.3041C13.9872 16 13.7383 15.7511 13.7383 15.4342V14.3027C13.7383 13.9859 13.9872 13.7369 14.3041 13.7369H15.4356C15.7524 13.7369 16.0014 13.9859 16.0014 14.3027V15.4342C16.0014 15.7511 15.7524 16 15.4356 16Z" fill="white"/>
<path d="M10.9073 16H9.77573C9.4589 16 9.20996 15.7511 9.20996 15.4342V14.3027C9.20996 13.9859 9.4589 13.7369 9.77573 13.7369H10.9073C11.2241 13.7369 11.473 13.9859 11.473 14.3027V15.4342C11.473 15.7511 11.2241 16 10.9073 16Z" fill="white"/>
<path d="M13.17 13.7369H12.0384C11.7216 13.7369 11.4727 13.488 11.4727 13.1711V12.0396C11.4727 11.7228 11.7216 11.4738 12.0384 11.4738H13.17C13.4868 11.4738 13.7357 11.7228 13.7357 12.0396V13.1711C13.7357 13.488 13.4868 13.7369 13.17 13.7369Z" fill="white"/>
</svg>
