<svg width="168" height="80" viewBox="0 0 168 80" fill="none" xmlns="http://www.w3.org/2000/svg">
<path d="M20.5234 8.71435C22.4757 8.71435 24.4281 9.32795 26.3804 10.4994L30.5082 2.29951C27.7749 0.849204 25.1532 0.0682678 22.6431 0.0682678C20.5792 0.0682678 18.7942 0.458736 17.2881 1.18389C15.782 1.90905 14.0528 3.35936 12.0447 5.42326L9.98077 7.59872V1.40701H1V48.319H9.98077V23.9426C9.98077 13.8462 13.5508 8.71435 20.5234 8.71435Z" fill="white"/>
<path d="M58.7884 19.0778H49.8076V48.3071H58.7884V19.0778Z" fill="white"/>
<path d="M58.7337 1.84079C57.5065 0.61361 56.0562 1.52588e-05 54.327 1.52588e-05C52.5977 1.52588e-05 51.2032 0.61361 49.976 1.84079C48.7489 3.06798 48.1353 4.4625 48.1353 6.13593C48.1353 7.92093 48.7489 9.37124 49.976 10.5984C51.2032 11.8256 52.6535 12.4392 54.3827 12.4392C56.112 12.4392 57.5623 11.8256 58.7337 10.5984C59.9609 9.37124 60.5745 7.92093 60.5745 6.19172C60.5187 4.4625 59.9609 3.06798 58.7337 1.84079Z" fill="white"/>
<path d="M103.917 9.25733H95.0476V0.0534363H86.0668V9.25733H81.2139V17.5129H86.0668V48.3041H95.0476V17.5129H103.917V9.25733Z" fill="white"/>
<path d="M167.564 20.3618C165.667 8.20151 154.678 -0.890809 141.793 0.113251C129.967 1.06153 120.429 10.7117 119.704 22.593C118.811 36.6499 129.912 48.3081 143.801 48.3081C149.323 48.3081 154.455 46.4116 158.527 43.2878V48.3081H167.899L167.843 24.0991C167.787 22.8162 167.731 21.589 167.564 20.3618ZM143.745 38.8811C135.601 38.8811 129.019 32.299 129.019 24.1549C129.019 16.0109 135.601 9.42871 143.745 9.42871C151.889 9.42871 158.472 16.0109 158.472 24.1549C158.472 32.299 151.834 38.8811 143.745 38.8811Z" fill="white"/>
<path d="M4.272 67.936H5.832V66.328H4.272V64.684C4.86 64.54 5.436 64.384 5.952 64.204L4.836 62.836C3.708 63.28 2.04 63.676 0.48 63.892C0.672 64.264 0.888 64.864 0.96 65.248C1.464 65.188 1.992 65.116 2.52 65.032V66.328H0.48V67.936H2.1C1.68 69.148 1.008 70.396 0.24 71.236C0.528 71.68 0.936 72.376 1.104 72.88C1.644 72.268 2.124 71.416 2.52 70.48V74.128H4.272V70.192C4.56 70.648 4.848 71.104 5.028 71.464L6.012 70.012C5.772 69.712 4.764 68.572 4.272 68.08V67.936ZM7.8 70.924V65.536H9.312V70.924H7.8ZM6.096 63.868V73.528H7.8V72.592H9.312V73.444H11.112V63.868H6.096ZM23.556 68.536H19.104V66.388H22.848V64.672H19.104V62.74H17.244V64.672H15.612C15.756 64.228 15.888 63.772 15.996 63.304L14.172 62.956C13.824 64.624 13.116 66.292 12.168 67.252C12.624 67.444 13.488 67.864 13.86 68.128C14.232 67.66 14.592 67.06 14.916 66.388H17.244V68.536H12.48V70.264H17.244V74.14H19.104V70.264H23.556V68.536ZM24.924 64.228L25.056 66.1C25.344 66.04 25.524 66.016 25.8 65.98C26.1 65.944 26.736 65.872 27.12 65.86C25.968 67.408 25.356 68.716 25.356 70.516C25.356 72.796 27.156 73.852 29.1 73.852C32.484 73.852 33.432 71.428 33.3 68.836C33.672 69.436 34.056 69.976 34.476 70.444L35.64 68.752C33.768 67.012 33.288 65.176 33.06 63.652L31.224 64.156C31.284 64.348 31.356 64.54 31.416 64.732C32.46 69.064 31.728 71.884 29.136 71.884C28.032 71.884 27.24 71.332 27.24 70.096C27.24 67.888 28.728 66.172 29.592 65.524C29.772 65.404 29.988 65.308 30.168 65.236L29.628 63.628C28.788 63.916 26.796 64.168 25.62 64.228C25.392 64.24 25.152 64.24 24.924 64.228ZM36.516 66.244L37.332 68.284C38.76 67.648 41.472 66.52 43.128 66.52C44.472 66.52 45.168 67.3 45.168 68.356C45.168 70.252 42.756 71.176 39.444 71.248L40.296 73.18C44.82 72.964 47.256 71.02 47.256 68.392C47.256 66.052 45.48 64.756 43.212 64.756C41.448 64.756 38.952 65.608 38.088 65.872C37.656 65.992 36.96 66.172 36.516 66.244ZM51.6 71.596C51.6 71.26 51.984 70.996 52.656 70.996C52.968 70.996 53.268 71.02 53.556 71.068C53.568 71.212 53.568 71.332 53.568 71.416C53.568 72.028 53.232 72.196 52.62 72.196C51.996 72.196 51.6 71.992 51.6 71.596ZM55.332 63.196H53.364C53.424 63.46 53.448 63.844 53.448 64.072C53.448 64.18 53.448 64.312 53.448 64.48C53.316 64.48 53.172 64.48 53.04 64.48C52.344 64.48 51.036 64.36 50.136 64.216L50.172 65.86C50.988 65.968 52.332 66.076 53.052 66.076C53.184 66.076 53.304 66.076 53.436 66.076C53.424 66.4 53.424 66.736 53.424 67.06C53.244 67.06 53.064 67.06 52.884 67.06C52.332 67.06 50.808 66.976 50.064 66.832L50.088 68.536C50.844 68.632 52.224 68.692 52.86 68.692C53.064 68.692 53.268 68.692 53.448 68.692C53.46 68.968 53.472 69.256 53.484 69.532C53.292 69.52 53.1 69.508 52.896 69.508C50.988 69.508 49.836 70.42 49.836 71.704C49.836 73.036 50.88 73.84 52.908 73.84C54.492 73.84 55.404 73.072 55.404 71.944C55.404 71.872 55.404 71.788 55.404 71.704C56.232 72.124 56.964 72.7 57.552 73.264L58.596 71.644C57.9 71.056 56.784 70.288 55.308 69.856C55.284 69.448 55.26 69.04 55.236 68.656C56.376 68.62 57.252 68.548 58.308 68.44L58.32 66.736C57.396 66.844 56.436 66.952 55.2 67.012C55.2 66.7 55.2 66.364 55.212 66.016C56.364 65.968 57.42 65.872 58.14 65.764L58.152 64.108C57.108 64.276 56.16 64.372 55.236 64.42C55.236 64.288 55.248 64.168 55.248 64.072C55.26 63.784 55.296 63.448 55.332 63.196ZM65.256 66.256L66.432 67.312C66.936 66.964 68.004 66.1 68.34 65.824L67.908 64.708C67.032 64.204 65.772 63.712 64.74 63.352L63.66 64.696C64.56 64.996 65.448 65.428 65.964 65.74C65.808 65.86 65.532 66.064 65.256 66.256ZM63.372 71.68L63.648 73.588C64.26 73.708 64.968 73.768 65.58 73.768C67.032 73.768 68.148 73.204 68.148 71.524C68.148 70.396 67.488 69.316 66.108 67.96C65.784 67.636 65.472 67.348 65.076 66.964L63.648 68.152C64.08 68.452 64.512 68.824 64.836 69.124C65.292 69.544 66.108 70.636 66.108 71.32C66.108 71.752 65.82 71.968 65.172 71.968C64.692 71.968 64.056 71.872 63.372 71.68ZM69.864 72.868L71.64 71.92C71.28 70.768 70.332 68.884 69.624 67.984L68.04 68.824C68.832 69.868 69.6 71.632 69.864 72.868ZM64.284 70.624L63.18 69.196C62.448 69.988 61.188 70.972 60.132 71.548L61.236 73.12C62.58 72.28 63.624 71.332 64.284 70.624ZM69.468 64.732L68.34 65.188C68.664 65.656 69.012 66.364 69.264 66.856L70.404 66.376C70.188 65.956 69.768 65.176 69.468 64.732ZM70.944 64.156L69.816 64.612C70.14 65.068 70.524 65.776 70.764 66.268L71.892 65.788C71.688 65.38 71.256 64.612 70.944 64.156ZM76.668 63.388L74.328 63.364C74.448 63.904 74.508 64.564 74.508 65.212C74.508 66.112 74.4 69.328 74.4 70.84C74.4 72.94 75.708 73.888 77.808 73.888C80.604 73.888 82.392 72.232 83.136 71.08L81.816 69.46C80.94 70.804 79.68 71.896 77.82 71.896C77.004 71.896 76.344 71.536 76.344 70.384C76.344 69.064 76.428 66.472 76.488 65.212C76.512 64.684 76.584 63.952 76.668 63.388ZM88.116 63.304L86.292 64.048C86.82 65.296 87.384 66.532 87.936 67.564C86.832 68.392 85.98 69.388 85.98 70.744C85.98 72.964 87.888 73.624 90.36 73.624C91.956 73.624 93.156 73.504 94.248 73.324L94.272 71.224C93.132 71.488 91.5 71.692 90.312 71.692C88.776 71.692 88.008 71.32 88.008 70.528C88.008 69.736 88.68 69.1 89.604 68.488C90.66 67.816 92.076 67.168 92.784 66.82C93.276 66.58 93.708 66.34 94.128 66.088L93.12 64.408C92.772 64.696 92.388 64.924 91.872 65.224C91.356 65.524 90.444 65.992 89.568 66.496C89.088 65.608 88.56 64.516 88.116 63.304ZM107.076 64.396H102.912C102.96 63.88 102.984 63.34 103.008 62.776H101.16C101.148 63.352 101.124 63.892 101.088 64.396H96.912V74.14H98.664V66.1H100.752C100.428 66.952 99.816 67.648 98.664 68.164C99.048 68.464 99.516 69.064 99.708 69.484C100.728 69.016 101.424 68.416 101.904 67.708C102.72 68.26 103.596 68.932 104.04 69.412L105.24 68.08C104.652 67.528 103.464 66.772 102.588 66.244L102.624 66.1H105.348V72.244C105.348 72.424 105.288 72.472 105.108 72.484C104.976 72.484 104.628 72.484 104.268 72.472L105.096 71.692C104.568 71.152 103.488 70.336 102.732 69.772C102.864 69.388 102.948 68.992 103.02 68.584H101.22C101.004 69.664 100.68 70.876 98.7 71.644C99.084 71.956 99.528 72.556 99.72 72.976C100.776 72.496 101.484 71.92 101.976 71.272C102.648 71.836 103.38 72.484 103.764 72.94L103.98 72.736C104.16 73.192 104.316 73.78 104.352 74.176C105.276 74.176 105.936 74.14 106.44 73.852C106.932 73.576 107.076 73.096 107.076 72.28V64.396ZM111.528 71.128H112.128V72.364H111.528V71.128ZM112.104 67.384C112.08 67.792 112.032 67.984 111.972 68.068C111.888 68.164 111.804 68.176 111.672 68.176C111.516 68.176 111.252 68.176 110.928 68.14C111.12 68.476 111.264 69.016 111.288 69.412C111.792 69.424 112.26 69.412 112.548 69.364C112.848 69.328 113.136 69.232 113.352 68.956C113.4 68.908 113.436 68.836 113.472 68.764C113.76 69.1 114.108 69.532 114.276 69.796H109.956C110.412 69.1 110.688 68.236 110.844 67.384H112.104ZM114.072 65.404C114.276 66.256 114.576 67.024 114.924 67.684C114.516 67.948 114.06 68.176 113.592 68.356C113.664 67.96 113.712 67.384 113.736 66.544C113.748 66.376 113.76 66.052 113.76 66.052H111.012C111.024 65.824 111.036 65.608 111.036 65.404H114.072ZM114.312 72.364H113.712V71.128H114.312V72.364ZM116.52 71.128V72.364H115.896V71.128H116.52ZM118.224 69.796H114.312C114.84 69.556 115.368 69.268 115.86 68.932C116.4 69.46 117.036 69.76 117.732 69.76C118.872 69.772 119.388 69.424 119.64 67.72C119.208 67.576 118.632 67.276 118.284 66.952C118.212 67.804 118.104 68.116 117.828 68.116C117.612 68.116 117.408 68.02 117.192 67.852C117.78 67.276 118.272 66.628 118.656 65.92L117.084 65.452C116.88 65.848 116.616 66.22 116.304 66.568C116.136 66.22 115.992 65.824 115.86 65.404H119.328V63.916H117.936L118.332 63.664C118.032 63.352 117.492 62.908 117.024 62.632L115.848 63.316C116.088 63.472 116.352 63.688 116.592 63.916H115.524C115.476 63.532 115.428 63.148 115.416 62.752H113.676C113.7 63.148 113.736 63.532 113.784 63.916H109.284V65.152C109.284 66.268 109.2 67.888 108.252 69.052C108.648 69.232 109.44 69.784 109.74 70.084C109.8 70.012 109.86 69.94 109.908 69.856V72.364H108.492V73.912H119.52V72.364H118.224V69.796ZM124.488 63.268L122.508 63.184C122.508 63.508 122.472 64.06 122.412 64.564C122.22 65.956 122.1 67.276 122.1 68.392C122.1 69.208 122.184 69.976 122.256 70.444L124.044 70.324C123.984 69.796 123.972 69.424 123.972 69.172C123.972 67.588 125.136 65.488 126.504 65.488C127.356 65.488 127.968 66.328 127.968 68.152C127.968 70.996 126.18 71.776 123.48 72.196L124.584 73.888C127.884 73.276 129.948 71.584 129.948 68.152C129.948 65.44 128.568 63.784 126.852 63.784C125.604 63.784 124.668 64.528 124.044 65.284C124.116 64.708 124.368 63.688 124.488 63.268ZM143.256 68.764C143.256 66.04 141.324 63.928 138.264 63.928C135.06 63.928 132.6 66.352 132.6 69.208C132.6 71.26 133.728 72.868 135.216 72.868C136.632 72.868 137.712 71.26 138.42 68.86C138.756 67.744 138.972 66.7 139.128 65.728C140.508 66.052 141.264 67.156 141.264 68.704C141.264 70.288 140.244 71.356 138.72 71.728C138.372 71.812 138.048 71.884 137.544 71.944L138.648 73.672C141.768 73.144 143.256 71.296 143.256 68.764ZM134.484 69.016C134.484 67.876 135.372 66.256 137.148 65.776C137.004 66.712 136.8 67.66 136.536 68.476C136.104 69.868 135.744 70.6 135.264 70.6C134.844 70.6 134.484 70.06 134.484 69.016ZM149.412 63.16H147.42C147.456 63.388 147.504 64.084 147.504 64.336V65.092C147.3 65.104 147.108 65.104 146.928 65.104C146.496 65.104 145.932 65.104 145.2 65.02L145.236 66.772C145.644 66.82 146.124 66.832 146.988 66.832C147.144 66.832 147.312 66.832 147.504 66.82V67.504C147.504 67.816 147.504 68.128 147.516 68.44C146.004 69.1 144.804 70.228 144.804 71.308C144.804 72.688 146.508 73.744 147.804 73.744C148.668 73.744 149.268 73.324 149.268 71.632C149.268 71.26 149.244 70.42 149.22 69.52C149.892 69.352 150.612 69.256 151.272 69.256C152.268 69.256 152.868 69.688 152.868 70.396C152.868 71.128 152.196 71.572 151.272 71.728C150.876 71.8 150.348 71.812 149.772 71.812L150.432 73.696C150.96 73.648 151.5 73.6 152.064 73.48C154.116 72.964 154.764 71.812 154.764 70.408C154.764 68.632 153.192 67.66 151.296 67.66C150.696 67.66 149.94 67.744 149.184 67.912C149.184 67.744 149.184 67.588 149.184 67.444C149.184 67.18 149.184 66.928 149.196 66.676C149.928 66.592 150.696 66.472 151.356 66.328L151.32 64.528C150.72 64.696 149.988 64.84 149.244 64.936C149.256 64.732 149.268 64.528 149.28 64.324C149.304 64.012 149.364 63.388 149.412 63.16ZM152.652 64.444L151.872 65.86C152.604 66.196 154.296 67.132 154.86 67.576L155.724 66.1C155.052 65.656 153.612 64.888 152.652 64.444ZM146.592 71.224C146.592 70.888 146.952 70.492 147.552 70.156C147.564 70.648 147.576 71.056 147.576 71.284C147.576 71.704 147.408 71.752 147.228 71.752C147 71.752 146.592 71.512 146.592 71.224ZM164.976 72.196H161.22V70.936H164.976V72.196ZM163.8 65.848H162.024V69.412H159.516V74.128H161.22V73.72H164.976V74.128H166.764V69.412H163.8V68.332H167.4V66.808H163.8V65.848ZM163.308 64.06V62.74H161.484V64.06H157.26V67.048C157.26 68.812 157.188 71.392 156.18 73.12C156.588 73.3 157.368 73.816 157.692 74.104C158.808 72.184 159.012 69.052 159.012 67.048V65.716H167.568V64.06H163.308Z" fill="white"/>
</svg>
